<svg id="Group_1" data-name="Group 1" xmlns="http://www.w3.org/2000/svg" xmlns:xlink="http://www.w3.org/1999/xlink" viewBox="0 600 1536 2304">
  <defs>
    <clipPath id="clip-path">
      <path d="M1393,1628c-.83-1.7-4-4-5-6-.33-2-.67-4-1-6l-12-10c-2.24-3.07-2.15-6.42-4-10-1.46-2.81-2.24-6.65-4-10-2.48-4.71-9.29-8.09-12-13-3-5.37-2.79-11.48-6-17-3.08-5.3-9-9.67-12-15-6-10.51-11.81-20.82-18-31-3.61-5.94-2.69-13.49-6-20-2.62-5.16-9-9.2-12-14-2.64-4.2-1.78-9.14-4-14-3.31-7.26-9.46-18.33-15-24,.31-11,9.12-15.34,6-28-13.09-53.18-27.72-106.7-49-151q-1-5.51-2-11c-4.31-12-9.7-23.31-13-36q-1-10-2-20c-9.4-36.51-20.85-74.79-43-99-37.46-40.94-94.79-60.91-157-77h-12c-9.93-2.48-25.41-3.36-36-6H958c-22-5.46-50.12-4.55-72-10H850c-10.26-2.53-27.48,1.09-40-2-10.63-2.62-27.3-2-41-2H706c-6.91,4.85-27.34,2-38,2-20.69,0-41-.17-58,4H586c-5.78,1.41-18.22,2.58-24,4H548c-16.86,4.14-37.65,7.83-54,12H482c-10.85,2.66-23.2,3.16-34,7-4.3,1.53-15.9,5.58-20,8-5.84,3.45-10.68,10.59-17,14-4.33,2.33-15,8.32-19,11-22.69,15.32-39.49,37.69-51,64-2.33,5.33-.95,10.53-3,16-.63,1.67-3.43,4.32-4,6-2.17,6.36,0,11.24-2,18-.69,2.37-3.29,5.35-4,8v8c-.7,2.37-3.29,5.35-4,8v8a444.19,444.19,0,0,1-17,46c-.33,3.33-.67,6.67-1,10-.32,1-2.72,3.34-3,4q-2.5,12-5,24c-10,29.21-16.24,62-24,92-4,15.49-4,30.43-4,49,0,8.23,2,21.66-1,28-1.76,3.76-6,7.64-8,11-3.62,6.22-4.51,12.55-8,19-2.45,4.53-7.45,8.6-10,13-2.84,4.92-2.16,11.43-5,16-4.5,7.23-12.68,12.54-17,20-3.5,6-4.35,12.17-8,18-3.11,5-8.91,9.08-12,14-2.9,4.62-2.54,11.07-6,15-5.2,5.91-12.69,10.18-18,16-4.18,4.58-5.68,11.59-10,16-4.82,4.91-13.55,7.93-16,15-2.2,3.46.08,10.1-1,15-7,31.83,11,34.29,27,48,38.77,33.2,102.75,48.08,159,63,17.93,4.76,34,3.43,52,8,32.28,8.21,71,7.75,104,16,11.67,2.91,25.37,1.36,36,4h18c6.83,1.68,20.85,3.28,28,4h22c8.93,2.19,26.54,3.65,36,4h24c17.59,4.32,42.6-1.33,63,2,22.21,3.63,52.51,2,78,2,26.93,0,61.64,3.63,85-2h16c13.42,0,29.63.51,40-2,12.54-3,29.73.49,40-2h24c11.22-.06,27.9-1.54,38-4h18c11.19-2.74,27.29-3.37,38-6h16c25.08-6.16,54.35-9.93,78-16l20-2c29.64-9.73,59.88-18.51,88-30,3.18-1.3,6.07-5.52,9-7,4.88-2.47,10.51-1.44,15-4,3.92-2.23,10.9-6.57,14-10,2.44-2.7,3.73-6.17,7-8,18-10.06,43.16-26.65,50-47C1395,1642.82,1394.7,1631.51,1393,1628Z" />
    </clipPath>
  </defs>
  <g clip-path="url(#clip-path)">
    <g id="top" style="isolation: isolate">
      <path d="M706,996h63c13.71,0,30.36-.61,41,2,12.53,3.07,29.73-.52,40,2h36c10.47,2.59,25.52,3.43,36,6h16c4.85,1.2,15.15,2.81,20,4h16c10.59,2.63,26.07,3.54,36,6h12c7.49,1.93,16.21,5.64,24,8,16.88,5.11,32.71,6.17,48,13,8.24,3.68,17.38,9.87,25,14,6.43,3.48,14.93,3.89,21,8a16.2,16.2,0,0,0,8,5c.13,3.47,9.82,20.84-20,20-6,9.41-12.5,6.49-17,9-27,15.06-28.3,11.16-47,16-4,0-10,1-14,1-3,.79-7,3.2-10,4-3.33,0-8.67,2-12,2-2.68.79-12.71,4.08-15,5-11.06,4.45-4.34-.88-12,1-14.39,3.52-21.87,1.24-36,1-30.21-.51-17-3.32-23-5-4.36-1.22-18,3.2-35,4-5.26.25-8.88-1.11-13-2a45,45,0,0,0-13,0H856c-2,.37-8.33,3.37-13.62,1.76-8.12-2.47-24,2.49-37.41,2.34-5.64-.07-19.68,1.43-25-.1-.34-.1-9.18,1.84-16,0-8.07-2.17-27.29-2.76-32-2-7.27,1.17-12.59,1.51-16,2l-7-2c-17.28-2.75-38.49,1.72-53-2H628c-19.71-4.9-55.24.06-74-6H542c-10.18,0-19.43-.81-28,2-5.51,1.81-15.46,6.69-26,4-11.48-2.93-28-.74-40-4-9.16-2.48-19.63-8.69-28-12-4.06-1.61-6.77-.84-10-3-2.86-1.92-5-6.1-8-8s-6.51-1.8-9-4c-4.15-3.67-7-9.1-11-13v-8c1.43-1.33,1.63-3.65,3-5l8-4c.67-1.33,1.33-2.67,2-4,6.54-4.87,14.22-6.5,21-11,8.77-5.82,15.12-12.17,26-17,11.64-5.17,27.62-5.93,40-9h12c16.35-4.2,40-7,54-12,6.67-.8,9.33,0,14,0,5.79-1.43,18.21-2.58,24-4h24c17-4.19,37.32-4,58-4C678.66,998,699.09,1000.85,706,996Z"  fill-rule="evenodd"/>
    </g>
    <g id="rim" style="isolation: isolate">
      <path d="M379,1067c.88,1.4,1.08,5.61,2,7,3.36,10,16.65,14.63,24,21,10.64,9.23,28.13,16.46,43,21,11.57,3.53,23.21-1.15,36,2,4.62,1.14,16.67,4.38,24,2,1.66-.54,4.35-3.43,6-4,11-3.78,37.59-1.73,47,0,7.33-.33,22.67,1.33,30,1,8.49,2.12,19.27-.56,30,2,11,2.61,30,1,30,1,19.17,3.73,41.68-1.69,63,4,9.47,2.53,15.54-4.68,24-2,1.64.52,9.36-.53,11,0,5.12,1.65,8.7,1.93,13,1,5-1.07,6.78,2.34,9,3,1.67.49,4-1.78,5-2,3.36-.73,8.91,1,11,1,11.35.29,12.84.11,17-1h16c20.07-7.45,17.18.63,30-3,3.33.33,10.67-.33,14,0,10.25-1.77,14.13,1.27,22-1,1-.29,12,.59,13,1,6.71,2.81,28-1.08,34-2,21-3.23-5.27,3.86,29,4,5.4,0,16.75,2,22,2,11.37.09,18.68-4.37,25-2a93.66,93.66,0,0,1,12-5c1.52-.56,7.71-2.49,9-3h10c2.88-1,6.52-4,10-5,4,0,10-1,14-1,9.59-1.54,12-3.29,18-5l10-1c7.74-2.83,23.17-14.81,29-12,2.11-1.26,5-5,7-6l16-2c1.25-2,4-4,5-6,1.35-2.68.49-6.74,2-9,12.89,15.69,31.4,25.7,42,44,13.25,22.88,21.74,51.7,29,80,2.92,11.38,1.22,21.82,5,32,13.31,35.84,27.29,67.42,39,106,3.32,10.93,6.71,23.84,11,34l3,18c5,14.82,11.68,35,3,50-2.06,3.57-7.53,4.75-10,8-13.46,17.73-28.6,28.39-50,38-11.84,5.32-23.42,9.35-36,14-13.1,4.84-28.46,6.6-43,11-7.37,2.23-18.53,3.34-26,6-20.51,7.32-44.49,10.76-68,17-11.11,3-13.65-.07-22,2-37.16,9.22-89.36,12-134,12H704c-18.73-4.63-41-3.34-60-8H620c-2.41-.63-5.88-3.73-8-4-4.7-.6-6.2,5.12-12,4l-16-6H566c-6.2-1.55-14.33-4.56-20-6H528c-1.64-.53-4.36-3.47-6-4-8.87-2.84-24.64.42-34-2-8.65-2.24-19.25-6.25-28-8-5.93-1.19-10.57,3.89-18,2-3.28-.84-7.94-4.48-12-4-5,.6-10,4.25-18,2-2.64-.74-5.63-3.31-8-4H394c-3.76-1.34-6.24-6.67-10-8l-14-1c-24.33-8.72-49.69-20.18-69-34-9.34-6.68-21.69-11.49-28-21-4.59-6.92-3-21.72-3-33,0-26,7.6-50.3,14-71,4.12-13.33,6.68-27.12,10-40q.5-6,1-12c3.79-8.88,8.15-22.78,11-32,.33-3.33.67-6.67,1-10a442.91,442.91,0,0,0,17-46v-8c.72-2.65,3.3-5.63,4-8v-8c.72-2.65,3.3-5.63,4-8,2-6.76-.19-11.65,2-18,.58-1.68,3.37-4.33,4-6,2.06-5.46.66-10.68,3-16,6.26-14.23,16-26.8,24-40C368.45,1076.31,376.09,1073.4,379,1067Z" fill-rule="evenodd"/>
    </g>
    <g id="bottom" style="isolation: isolate">
      <path d="M1277,1436a21.58,21.58,0,0,1,7,2c3.83,8.4,9.44,16.21,13,24,2.87,6.28,2.51,12.46,6,18,1.87,3,6.08,5.14,8,8,4.21,6.26,3.89,15.46,8,22,1.36,2.16,4.62,3.85,6,6,3.81,6,5.21,12.08,9,18l3,2c1.54,3,.42,5.44,2,8,1.25,2,5,4,6,6,1.56,3,.45,5.45,2,8,1.12,1.84,4.14,3.88,5,6,1.89,4.68.65,9,3,13l8,7c3.59,5.33,3.87,12.34,8,17,4.58,5.16,12.41,9,16,15s4.33,11.47,9,16c-.43,24.66-20.08,38.27-35,49a390.42,390.42,0,0,1-95,50c-20.77,7.48-34.7,12.9-61,19-4.67.67-10.33,3.33-15,4-3.13,1.17-8.87,1.83-12,3-6.92,2.58-15.94,3.5-22,5-4,0-9,2-13,2-19.46,4-54.06,8.32-84,11-6.67,0-17.33,2-24,2-3,1.67-20.23,1.31-54,4-9.33,0-19.67,1-29,1-17.34,0-32.91,2-52,2H866c-24.1,1.43-40.61,1.09-66,1-4,0-9.25-.06-15,0H733c-19.55,0-29.79-2-49-2-28.33,0-53.2-2.55-88-5-8,0-15-1-23-1-6.29-1.55-20.71-1.46-27-3-6,0-8-1-14-1-15.18-1.53-42-3.07-58-7-10.37-2.54-9.41-.25-23-2-26-3.33-60.5-7.79-85-14-11-2.78-19.07-2.11-30-5-47.62-12.59-103.34-26.41-142-49-9.08-5.31-39.61-26.93-43-36q-.5-8-1-16c-.67-2.86-3.25-7-2-12,1.31-5.21,15.37-27.63,19-31,3.84-3.57,10.71-5,14-9,1.51-1.85.66-3.8,2-6,3.46-5.7,10.46-10.37,14-16l4-12c4.2-6.91,10.88-11.64,15-20,3.06-6.2,5.14-12.38,9-18,3-4.35,8.57-7.08,12-11,3.87-4.42,2.85-10.74,5-17,1.79-5.21,4.23-3.3,7-9,5.93-12.21,21.51-44.81,28-39a143.55,143.55,0,0,0,20,15c8.17,4.94,15.16,9.41,24,14,12.31,6.39,18,9.66,37,15,3,.85,8.79,5.83,12,7,9.47.59,9.33-1.33,14-1,7.81,2.09-2.36,5.16,10,8,3.33,0,7.67,2,11,2,4.26,1.13.05.69,13,3,13.23,2.36,8.26-2.5,12-3,4-.54,8.82,3,12,4,18.82,6.17,12.94-4.12,18-2,29.68,12.41,32.47,5.73,43,13,13.66,0,11.67-3,19-3,1.64.53,6.36,5.47,8,6,7,1.52,11,0,17,0,5.68,1.45,10,3.69,19,4h18c5.33,2,6.69,7.06,16,6,10.1,2.64,7.24-4.4,12-4,2.61.22,5.8,3.21,8,4,11,4,21.43,1.38,28,3,8,0,15,1,23,1,10.1,5.45,77.23,5.38,141,6,108.8,1,201.66-5.26,286-28,61.63-16.62,126-23.94,165-63C1268,1446,1273.58,1442.78,1277,1436Z" fill="none" fill-rule="evenodd"/>
    </g>
    <g id="shaddow" style="isolation: isolate">
      <image id="shaddow_Image" data-name="shaddow Image" width="1247" height="793" transform="translate(148 995)" xlink:href="newhat-011.png"/>
    </g>
  </g>
</svg>
